<?xml version="1.0" encoding="UTF-8"?>
<svg id="Capa_1" data-name="Capa 1" xmlns="http://www.w3.org/2000/svg" viewBox="0 0 223.15 223.15">
  <defs>
    <style>
      .cls-1 {
        fill: #fff;
        stroke: #254ee7;
        stroke-miterlimit: 10;
        stroke-width: 5px;
      }

      .cls-2 {
        fill: #feedee;
      }

      .cls-3 {
        fill: #254ee7;
      }
    </style>
  </defs>
  <path class="cls-2" d="M3.36,114c2.14,20.64,11.14,39.8,22.45,56.95,11.93,18.08,27.57,27.15,48.45,33.57,40.77,12.53,87.13-1.34,117.78-30.21,18.51-17.44,28.39-43.92,27.54-69.41-.48-14.35-6.67-27.93-13.97-40.32-10.93-18.53-25.26-35.97-44.6-45.37-26.92-13.09-58.85-8.63-87.62-.75-12.24,3.35-24.58,7.4-34.72,15.01-8.77,6.58-15.46,15.48-21.97,24.3-5.81,7.87-6.63,13.6-9.72,22.88-3.1,9.28-4.26,24.81-3.62,33.36"/>
  <path class="cls-1" d="M58.74,112.96s-14.22-.96-14.05,13.59c0,0,1.68,13.32,16.41,9.39"/>
  <path class="cls-1" d="M156.41,134.81s13.27,5.22,17.49-8.71c0,0,2.42-13.2-12.81-13.91"/>
  <path class="cls-1" d="M58.67,123.98s-4.45-56.08,56.67-54.89c0,0,46.29.89,45.4,46.58,0,0,.01,44.51-47.18,45.4,0,0-48.96,6.82-54.89-37.09Z"/>
  <g>
    <path class="cls-3" d="M106.33,127.62c-3.03.92-8.27,5.04-9.83,7.8,0,0-4.61,6.98-.66,8.86,0,0,4.05,2.54,9.88-3.2,0,0,4.42-4.52,11.39-.38,0,0,10.45,3.39,7.44-7.01,0,0-5.18-10.02-18.22-6.07Z"/>
    <path class="cls-3" d="M105.67,125.21c-4.15,1.34-8.22,4.61-10.77,8.1-1.59,2.19-2.86,4.9-3.12,7.6-.3,3.06,1.7,5.59,4.64,6.22,4.21.9,8.19-1.45,11.09-4.3.06-.06.14-.11.2-.18.25-.29-.52.31.01,0,.24-.15.47-.31.72-.45.12-.06.23-.12.35-.19.37-.19-.25.05.33-.14,1.7-.55,3.41-.55,5.31.25.96.4,1.77.97,2.79,1.2s2.03.38,3.05.41c2.95.07,5.79-1.19,6.88-4.09.87-2.33.55-5.72-.82-7.82-1.56-2.38-3.76-4.43-6.3-5.73-4.5-2.31-9.6-2.29-14.38-.88-3.08.91-1.77,5.73,1.33,4.82,1.92-.56,3.83-.9,5.84-.82.86.04,1.21.08,2.07.28.35.08.69.17,1.03.28.16.05.33.11.49.16,0,0,.74.29.33.12.57.24,1.13.54,1.66.87.28.17.55.36.82.54.06.04.42.31.17.12s.17.14.22.18c.76.65,1.43,1.36,2.07,2.12.21.25-.36-.53-.11-.14.04.07.1.13.14.19.08.12.16.23.24.35.12.18.24.35.34.54.19.37-.06-.44,0,.23.1.98.27,1.21.27,2.15,0,0-.07.73-.01.33.05-.33-.02.09-.05.17-.04.12-.07.24-.1.36-.09.34.17-.42.05-.11-.05.13-.14.24-.21.36.02-.04.32-.49.1-.13s-.45.32-.13.15c-.19.1-.83.36-.14.12-.19.07-.39.13-.58.18-.31.09-.63.08-.09.04-.26.02-.51.04-.77.05-.4,0-.79-.03-1.19-.06-.71-.04.44.1-.08,0-.18-.04-.36-.06-.53-.1-.26-.05-.53-.1-.79-.19-.12-.04-.44-.22-.11-.07-2.19-.99-4.23-1.88-6.69-1.85-1.78.02-3.51.47-5.08,1.28-2.32,1.19-3.94,3.59-6.37,4.34-.33.1-.66.18-1,.24.48-.08-.37.02-.53.02-.1,0-.9-.07-.48,0,.39.05-.35-.09-.46-.12-.13-.03-.29-.14-.42-.14-.06,0,.59.34.25.09-.02-.02-.05-.02-.08-.04-.09-.08-.33-.19-.43-.24.42.22-.35-.04.15.11-.07-.02-.08-.19-.09-.27.03.28.07-.91.04-.7.05-.31.38-1.41.63-2-.15.36.22-.47.31-.64.14-.28.29-.56.44-.84s.33-.56.5-.83c.85-1.38,2.17-2.63,3.57-3.77s3.39-2.45,4.77-2.9c3.05-.98,1.75-5.81-1.33-4.82Z"/>
  </g>
  <path class="cls-3" d="M110.8,75.88c3.28-4.57,5-10.3,4.8-15.93-.19-5.16-1.86-11.56-7.4-13.3-2.55-.8-5.64-.26-7.45,1.79-1.95,2.21-2.07,5.36-.86,7.96,2.36,5.06,9.07,6.01,13.96,4.97,5.71-1.22,10.38-5.36,12.56-10.71.51-1.25-.55-2.75-1.75-3.08-1.43-.39-2.56.49-3.08,1.75-1.2,2.95-3.84,5.31-6.74,6.51s-6.97,1.59-9.51-.47c-.89-.72-1.63-2.11-1.12-3.22s2.03-1,2.99-.57c3.01,1.37,3.4,6.35,3.41,9.16,0,4.56-1.48,8.92-4.13,12.61-.79,1.1-.19,2.78.9,3.42,1.26.74,2.63.2,3.42-.9h0Z"/>
  <path class="cls-3" d="M89.55,117.76c3.22,0,3.22-5,0-5s-3.22,5,0,5h0Z"/>
  <path class="cls-3" d="M126.93,116.4c3.22,0,3.22-5,0-5s-3.22,5,0,5h0Z"/>
  <path class="cls-2" d="M133.51,126.5c-1,1.13-.95,2.94-.13,4.2.82,1.26,2.26,2.02,3.73,2.32,1.81.37,3.83.09,5.26-1.08,1.43-1.17,2.11-3.31,1.31-4.98-.59-1.24-1.85-2.03-3.15-2.49-1.35-.48-2.84-.67-4.22-.3s-2.65,1.32-3.18,2.65"/>
  <path class="cls-2" d="M74.17,127.32c-1,1.13-.95,2.94-.13,4.2.82,1.26,2.26,2.02,3.73,2.32,1.81.37,3.83.09,5.26-1.08s2.11-3.31,1.31-4.98c-.59-1.24-1.85-2.03-3.15-2.49-1.35-.48-2.84-.67-4.22-.3-1.39.36-2.65,1.32-3.18,2.65"/>
  <path class="cls-3" d="M136.1,122.72c-.66,1.4-1.43,2.8-1.9,4.28-.31.98-.35,1.96-.2,2.97.17,1.13.86,2.04,1.77,2.69.73.52,1.62.7,2.49.77s1.8-.12,2.61-.51c1.99-.96,2.26-3.37,1.74-5.28-.4-1.47-1.31-2.72-1.91-4.11l.25.6c-.11-.27-.2-.54-.28-.82-.32-1.27-1.81-2.16-3.08-1.75s-2.09,1.72-1.75,3.08c.39,1.53,1.34,2.82,1.95,4.25l-.25-.6c.16.4.29.81.35,1.24l-.09-.66c.04.29.06.57.03.86l.09-.66c-.02.14-.05.27-.1.4l.25-.6c-.05.1-.09.18-.16.27l.39-.51c-.07.08-.13.14-.22.21l.51-.39c-.09.06-.17.1-.26.15l.6-.25c-.19.08-.39.12-.59.15l.66-.09c-.3.03-.6.03-.9,0l.66.09c-.23-.03-.45-.09-.67-.17l.6.25c-.15-.07-.28-.14-.41-.24l.51.39c-.1-.08-.19-.17-.27-.27l.39.51c-.09-.12-.15-.25-.21-.38l.25.6c-.06-.18-.11-.35-.13-.54l.09.66c-.03-.29-.02-.56.02-.85l-.09.66c.08-.5.24-.98.43-1.45l-.25.6c.43-1.02.94-2.02,1.41-3.03.29-.62.44-1.24.25-1.93-.16-.58-.61-1.21-1.15-1.49-.58-.31-1.28-.46-1.93-.25-.59.19-1.22.57-1.49,1.15h0Z"/>
  <path class="cls-3" d="M39.32,43c-12.71,15.39-19.74,34.42-23.65,53.81-2.05,10.17-3.63,20.63-4,31-.37,10.38,1.13,20.84,6.3,29.98,8.98,15.86,26.05,25.44,42.74,31.3,20.73,7.28,43.09,10.53,65.02,10.62,17.77.07,36.95-2.57,51.74-13.19,16.74-12.02,23.74-32.44,27.69-51.86,2.17-10.68,3.26-21.71,2.15-32.59-1.03-10.11-3.96-19.86-8.92-28.74-9.11-16.33-23.8-28.8-39.22-38.96-8.33-5.49-17.03-10.75-26.18-14.76-4.8-2.11-9.76-3.88-14.92-4.89-5.72-1.12-11.55-1.33-17.35-.98s-11.54,1.01-17.19,2.01c-4.49.79-8.66,2.46-12.72,4.5s-8.14,3.94-11.93,6.34-7.49,5.24-10.97,8.19c-3.02,2.56-5.95,5.26-8.58,8.23-2.13,2.4,1.4,5.95,3.54,3.54,5.4-6.1,11.95-11.51,18.84-15.83,3.66-2.29,7.62-4.12,11.46-6.07s7.68-3.4,11.9-4.12c5.4-.92,10.92-1.54,16.38-1.83s10.85-.11,16.16,1.02c9.93,2.12,19,6.89,27.7,11.97,15.38,8.97,30.35,19.44,41.56,33.45,5.36,6.7,9.71,14.32,12.37,22.49,3.24,9.95,3.99,20.48,3.21,30.87s-3.03,20.49-6.09,30.33c-2.79,8.97-6.59,17.91-12.66,25.18-11.22,13.43-28.57,18.79-45.48,20.22-9.38.79-18.82.52-28.2-.21-10.73-.84-21.4-2.44-31.86-4.99-17.46-4.25-35.76-10.91-48.56-24.09-6.15-6.33-10.37-14.05-12.05-22.74-1.94-10.07-.73-20.62.67-30.68,2.6-18.67,7.2-37.52,16.88-53.88,2.3-3.89,4.87-7.62,7.75-11.1.86-1.04,1.02-2.52,0-3.54-.89-.89-2.67-1.05-3.54,0h0Z"/>
  <path class="cls-3" d="M92.13,116.16c1.28-3.88-2.57-6.96-5.83-7.96-1.47-.45-3.05-.62-4.58-.64-1.85-.02-3.63.26-5.3,1.06-1.18.57-1.59,2.35-.9,3.42.78,1.21,2.16,1.51,3.42.9.24-.12.17-.06-.03,0,.16-.05.32-.11.49-.16.27-.08.54-.12.81-.18.3-.07-.43.03.06,0,.14,0,.28-.02.42-.03.31-.02.62-.02.94-.02.54,0,1.08.03,1.61.08.05,0,.34.07.38.04-.32-.04-.38-.05-.19-.02.06,0,.12.02.19.03.28.05.56.11.83.17.24.06.48.13.72.21.15.05.29.11.44.16.33.11-.39-.2-.08-.03.25.13.5.24.73.39.11.06.21.13.31.2.25.16.09.02-.06-.06.24.14.41.4.62.58.24.2-.2-.33-.03-.06.08.14.17.27.25.4.22.36-.06-.07-.03-.08.02,0,.08.35.1.35l-.04-.31c0,.23,0,.24.03.02.13-.4-.06.17-.07.2-.41,1.24.48,2.79,1.75,3.08,1.38.31,2.64-.42,3.08-1.75h0Z"/>
  <path class="cls-3" d="M90.52,113.13c-4.56-1.01-9.29-.37-13.41,1.83-1.15.62-1.61,2.32-.9,3.42.76,1.17,2.19,1.56,3.42.9.4-.21.81-.46,1.24-.61-.61.21.21-.07.32-.11.19-.07.37-.13.56-.19.44-.14.88-.27,1.33-.37.26-.06.51-.11.77-.16.07-.01.83-.14.45-.08s.38-.04.45-.05c.23-.02.46-.04.69-.05.46-.02.92-.03,1.38,0s.92.06,1.38.11c.19.02.13.02-.18-.02.13.02.26.04.39.06.26.05.52.1.77.16,1.27.28,2.77-.38,3.08-1.75.29-1.27-.38-2.77-1.75-3.08h0Z"/>
  <path class="cls-3" d="M128.66,115.64c.31-.39.64-.76,1-1.11.18-.17.37-.33.56-.49.23-.2-.42.3-.05.04.09-.06.18-.13.27-.19.41-.28.84-.53,1.28-.76.12-.06.25-.12.37-.18.29-.15-.58.22-.06.03.23-.09.47-.17.7-.25.47-.15.96-.27,1.45-.36.08-.01.47-.06.08-.02-.42.05.07,0,.16-.01.25-.02.5-.04.74-.04s.5,0,.74,0c.11,0,.22.01.33.02.05,0,.59.07.16,0-.39-.06,0,0,.08.02.14.02.27.05.41.08.27.06.54.13.8.21,1.25.37,2.78-.45,3.08-1.75s-.4-2.68-1.75-3.08c-4.9-1.44-10.72.25-13.9,4.3-.43.54-.73,1.05-.73,1.77,0,.61.27,1.35.73,1.77.9.83,2.67,1.1,3.54,0h0Z"/>
  <path class="cls-3" d="M127.5,116.55c.18-.03.36-.06.54-.09l-.66.09c.91-.12,1.81-.12,2.72,0l-.66-.09c.5.07.99.17,1.47.31.22.06.44.13.65.21.1.04.3.08.38.15-.12-.09-.54-.24-.16-.06.43.2.85.43,1.25.69.19.12.37.27.56.39-.59-.37-.23-.18-.08-.05.1.09.21.18.31.27.96.88,2.6,1.02,3.54,0,.88-.96,1.03-2.59,0-3.54-3.03-2.78-7.14-3.89-11.16-3.12-1.29.25-2.14,1.86-1.75,3.08.44,1.37,1.7,2.01,3.08,1.75h0Z"/>
</svg>